<svg xmlns="http://www.w3.org/2000/svg" width="720" height="200" viewBox="0 0 720 200"><defs><style>.a{fill:#fff;}.b{fill:#fccc4a;}</style></defs><path class="a" d="M651.5,60.9h0a5.76,5.76,0,0,0-5.7,5.7h0a5.65,5.65,0,1,0,11.3-.1A5.59,5.59,0,0,0,651.5,60.9Zm0,10.6a4.69,4.69,0,0,1-4.6-4.8h0a4.61,4.61,0,0,1,4.5-4.8h.1a4.69,4.69,0,0,1,4.6,4.8h0A4.76,4.76,0,0,1,651.5,71.5Z"/><path class="a" d="M652.5,66.8h0a1.71,1.71,0,0,0,1.2-1.6,1.61,1.61,0,0,0-.6-1.3,2.88,2.88,0,0,0-2-.5c-.8,0-1.3.1-1.8.1v6.4h1V67.2h.7a1.24,1.24,0,0,1,1.4,1.1h0a9.36,9.36,0,0,0,.4,1.6h1.1a9.36,9.36,0,0,1-.4-1.6C653.4,67.4,653,66.9,652.5,66.8Zm-1.4-.4h-.7V64.3c.2,0,.4-.1.7-.1,1.1,0,1.5.6,1.5,1.1C652.7,66.1,651.9,66.4,651.1,66.4Z"/><path class="a" d="M552,61.5c-19.9,0-36.6,11.7-43.8,30.4-6.9,17.8.5,29.5,19.9,29.5,17.2,0,30.2-6.4,38-18.5H544.8c-2.1,2.9-5.9,4.6-10.1,4.6-6.4,0-8.5-4.1-6-11.2h41.8L571,95C579.2,74,571.9,61.5,552,61.5Zm.9,23.7H533c3-6.6,8-10.3,13.9-10.3C553,74.9,555,78.2,552.9,85.2Z"/><path class="a" d="M206.9,63.5l-11,28.8c-3,7.6-7.1,11.4-12.6,11.4-6.2,0-6.2-3.6-3.4-11.2l11.2-29H168.7l-11,29c-3.7,9.8-6.2,16.6-3.9,21.7,2,4.4,6.6,6.8,13.5,6.8,8,0,15.5-3,23.3-9.6l-3.2,8.2h20.3l21.5-56-22.3-.1Z"/><path class="a" d="M501.4,76.3h10.3l5-12.8H506.4L513,46.2H490.8l-6.6,17.3h-8l-4.8,12.8h7.8l-10.7,28.1c-4.8,12.1-1.1,16,12.8,16,4.3,0,8.9-.2,13.9-.5l6.2-16h-3.2c-5.3,0-6.9-1.1-5.3-5.1Z"/><path class="a" d="M465.2,82c2.8-7.5,3.2-11.8-1.1-15.8-2.9-2.5-9.8-4.6-20.1-4.6-19.5,0-32.2,6.6-37.2,19h21.7c1.8-3.7,5-5.5,9.6-5.5,5.3,0,7.5,1.2,6.2,4.6-2,5.1-6.4,4.6-17.8,6.1-17.3,1.9-26.5,5.5-31.1,18-4.5,11.2.2,17.8,13,17.8,8.2,0,15.5-2.3,23.1-7.3l-.7,5.3h22.4l.5-1.6c-1.1-1.1-1.2-2.7-.5-4.8ZM437.5,97.3c-2.9,7.5-7.3,10.8-14.8,10.8-4.1,0-5.7-2-4.5-5.2,2.1-5.3,8.4-4.6,20.3-8.5A24.69,24.69,0,0,1,437.5,97.3Z"/><path class="a" d="M400,84.3l8.5-22.2h-2c-9.1,0-15.7,3.4-21.9,11.8l3.9-10.3H368l-21.5,56h22.4l8.9-22.9c3.2-8.7,8.9-12.6,17.8-12.6A16.26,16.26,0,0,1,400,84.3Z"/><path class="a" d="M276.2,113.1,288.1,82c2.9-7.5,3.2-11.8-1.1-15.8-2.9-2.5-9.8-4.6-20.1-4.6-19.6,0-32.2,6.6-37.2,19h21.7c1.8-3.7,5-5.5,9.6-5.5,5.3,0,7.5,1.2,6.2,4.6-2,5.1-6.4,4.6-17.8,6.1-17.3,1.9-26.5,5.5-31.1,18-4.5,11.2.2,17.8,13,17.8,8.2,0,15.5-2.3,23.1-7.3l-.7,5.3h22.4l.5-1.6C275.6,116.8,275.5,115.2,276.2,113.1ZM260.3,97.3c-2.9,7.5-7.3,10.8-14.8,10.8-4.1,0-5.7-2-4.4-5.2,2.1-5.3,8.4-4.6,20.3-8.5A10.21,10.21,0,0,1,260.3,97.3Z"/><path class="a" d="M620.2,61.5c-19.8,0-36.3,11.4-43.4,29.9-7.1,18.3.5,30,20.6,30,18,0,32.9-9.1,39.5-23.8H614.7c-2.7,5.5-6.8,8.4-11.9,8.4-6.4,0-7.3-4.6-3.6-14.6,3.7-9.8,8.3-14.4,15-14.4,5.2,0,6.8,2.5,5.2,7.8h22.2C646.5,70.8,638.5,61.5,620.2,61.5Z"/><path class="a" d="M347.5,43.7l-10,25.8c-2.3-5.2-6.8-7.6-13.5-7.6-13.7,0-28.5,11.6-35.4,29.9s-1.4,29.7,12.6,29.7c7.6,0,14.6-2.8,21.9-8.9l-2.7,6.9h19.8l29-75.8ZM329.2,92.1c-3.2,8.4-8.5,13-14,13-5.7,0-7.5-4.6-4.3-13,3.4-8.7,7.8-13,14-13S332.6,83.4,329.2,92.1Z"/><path class="a" d="M159.6,73.3c10.9-28.4.4-46-27.7-46-28.3,0-52.3,17.8-63.3,46.6-10.5,27.3,0,45.5,27.3,45.5a55.89,55.89,0,0,0,23.5-4.8l6.8,11.8,17.6-12.3-6.1-10.2C147.8,95.1,155.1,85.1,159.6,73.3Zm-28,1.3a83,83,0,0,1-5.5,10.7l-6-10.5L103.5,86.4l6.6,11.2a20,20,0,0,1-5.4.7c-12.6,0-14.9-8.1-8.4-25.1s15.1-25,27.6-25C136.9,48.3,138.3,56.7,131.6,74.6Z"/><path class="a" d="M651.5,60.9h0a5.76,5.76,0,0,0-5.7,5.7h0a5.65,5.65,0,1,0,11.3-.1A5.59,5.59,0,0,0,651.5,60.9Zm0,10.6a4.69,4.69,0,0,1-4.6-4.8h0a4.61,4.61,0,0,1,4.5-4.8h.1a4.69,4.69,0,0,1,4.6,4.8h0A4.76,4.76,0,0,1,651.5,71.5Z"/><path class="a" d="M652.5,66.8h0a1.71,1.71,0,0,0,1.2-1.6,1.61,1.61,0,0,0-.6-1.3,2.88,2.88,0,0,0-2-.5c-.8,0-1.3.1-1.8.1v6.4h1V67.2h.7a1.24,1.24,0,0,1,1.4,1.1h0a9.36,9.36,0,0,0,.4,1.6h1.1a9.36,9.36,0,0,1-.4-1.6C653.4,67.4,653,66.9,652.5,66.8Zm-1.4-.4h-.7V64.3c.2,0,.4-.1.7-.1,1.1,0,1.5.6,1.5,1.1C652.7,66.1,651.9,66.4,651.1,66.4Z"/><path class="b" d="M115.3,143.9v5H101v5.8h13.2v4.6H101V166h14.6v5H95V143.9Z"/><path class="b" d="M123.6,166.1a2.84,2.84,0,0,0,.9,1,3.1,3.1,0,0,0,1.3.6,7.72,7.72,0,0,0,1.5.2,4.87,4.87,0,0,0,1.2-.1,3.58,3.58,0,0,0,1.1-.4,3.24,3.24,0,0,0,.9-.8,2.84,2.84,0,0,0,.4-1.2c0-.8-.5-1.4-1.6-1.8a37.45,37.45,0,0,0-4.5-1.2c-.8-.2-1.6-.4-2.3-.6a7.22,7.22,0,0,1-2-.9,4,4,0,0,1-1.4-1.5,3.42,3.42,0,0,1-.5-2.2,6.43,6.43,0,0,1,.7-3.1,5,5,0,0,1,1.9-1.9,9.87,9.87,0,0,1,2.7-1,16.17,16.17,0,0,1,6.2,0,8.8,8.8,0,0,1,2.7,1,6.06,6.06,0,0,1,2,1.9,5.29,5.29,0,0,1,.9,3h-5.1a2.25,2.25,0,0,0-1.2-2.1,5.42,5.42,0,0,0-2.5-.6,3.4,3.4,0,0,0-1,.1,3.55,3.55,0,0,0-1,.2,1.34,1.34,0,0,0-.7.6,1.69,1.69,0,0,0-.3,1,1.66,1.66,0,0,0,.5,1.2,3.69,3.69,0,0,0,1.4.7,14.62,14.62,0,0,0,2,.5,17.42,17.42,0,0,1,2.2.5c.7.2,1.6.4,2.3.6a7.5,7.5,0,0,1,2,1,3.64,3.64,0,0,1,1.4,1.6,3.72,3.72,0,0,1,.5,2.3,5.87,5.87,0,0,1-.8,3.2,5.78,5.78,0,0,1-2,2.1,10.21,10.21,0,0,1-2.9,1.1,18.3,18.3,0,0,1-6.6,0A10.21,10.21,0,0,1,121,170a5.3,5.3,0,0,1-2.1-2.1,6.29,6.29,0,0,1-.9-3.3h5.1A3.81,3.81,0,0,0,123.6,166.1Z"/><path class="b" d="M144,166.1a2.84,2.84,0,0,0,.9,1,3.1,3.1,0,0,0,1.3.6,7.72,7.72,0,0,0,1.5.2,4.87,4.87,0,0,0,1.2-.1,3.58,3.58,0,0,0,1.1-.4,3.24,3.24,0,0,0,.9-.8,1.8,1.8,0,0,0,.3-1.2c0-.8-.5-1.4-1.6-1.8a37.45,37.45,0,0,0-4.5-1.2c-.8-.2-1.6-.4-2.3-.6a7.22,7.22,0,0,1-2-.9,4,4,0,0,1-1.4-1.5,3.42,3.42,0,0,1-.5-2.2,6.43,6.43,0,0,1,.7-3.1,5.2,5.2,0,0,1,2-1.9,8.8,8.8,0,0,1,2.7-1,16.17,16.17,0,0,1,6.2,0,8.8,8.8,0,0,1,2.7,1,6.06,6.06,0,0,1,2,1.9,6.2,6.2,0,0,1,.9,3H151a2.25,2.25,0,0,0-1.2-2.1,5.42,5.42,0,0,0-2.5-.6,3.4,3.4,0,0,0-1,.1,3.55,3.55,0,0,0-1,.2,1.34,1.34,0,0,0-.7.6,1.54,1.54,0,0,0,.2,2.1,3.69,3.69,0,0,0,1.4.7,14.62,14.62,0,0,0,2,.5,17.42,17.42,0,0,1,2.2.5c.7.2,1.6.4,2.3.6a7.5,7.5,0,0,1,2,1,3.64,3.64,0,0,1,1.4,1.6,3.72,3.72,0,0,1,.5,2.3,6.15,6.15,0,0,1-2.8,5.4,10.21,10.21,0,0,1-2.9,1.1,18.3,18.3,0,0,1-6.6,0,10.21,10.21,0,0,1-2.9-1.1,6,6,0,0,1-2.1-2.1,6.29,6.29,0,0,1-.9-3.3h5.1A4.42,4.42,0,0,0,144,166.1Z"/><path class="b" d="M165.6,166.3a5,5,0,0,0,3.5,1.2,5.38,5.38,0,0,0,2.8-.8,2.91,2.91,0,0,0,1.4-1.7h4.8a9.46,9.46,0,0,1-3.5,5.1,9.59,9.59,0,0,1-5.7,1.5,12.34,12.34,0,0,1-4.2-.7,8.51,8.51,0,0,1-3.1-2.1,7.93,7.93,0,0,1-2-3.3,12,12,0,0,1-.7-4.2,11.41,11.41,0,0,1,.7-4.1,11.55,11.55,0,0,1,2.1-3.3,10.16,10.16,0,0,1,3.2-2.2,11.5,11.5,0,0,1,4.1-.8,9.76,9.76,0,0,1,4.4,1,8.64,8.64,0,0,1,3.1,2.6,10.38,10.38,0,0,1,1.7,3.7,12.93,12.93,0,0,1,.4,4.4H164.4A4.76,4.76,0,0,0,165.6,166.3Zm6.1-10.4a4.07,4.07,0,0,0-2.9-1.1,4.92,4.92,0,0,0-2.1.4,4.86,4.86,0,0,0-1.4,1.1,3.69,3.69,0,0,0-.7,1.4,5.85,5.85,0,0,0-.2,1.3h8.8a9.87,9.87,0,0,0-1.5-3.1Z"/><path class="b" d="M186.8,151.4v2.7h.1a6,6,0,0,1,2.7-2.5,7.64,7.64,0,0,1,3.3-.8,11.33,11.33,0,0,1,3.6.6,5,5,0,0,1,2.2,1.6,6,6,0,0,1,1.1,2.6,18.41,18.41,0,0,1,.3,3.3V171h-5.4V159.9a6.37,6.37,0,0,0-.8-3.6,3.14,3.14,0,0,0-2.7-1.2,3.89,3.89,0,0,0-3.2,1.3,7.22,7.22,0,0,0-1,4.3V171h-5.4V151.4Z"/><path class="b" d="M215,151.4V155h-4v9.7a1.8,1.8,0,0,0,1.2,2.3,2.05,2.05,0,0,0,1.1,0h.9c.3,0,.5-.1.8-.1V171a7.57,7.57,0,0,1-1.5.1h-1.6a19.42,19.42,0,0,1-2.4-.2,4.79,4.79,0,0,1-2-.7,3.76,3.76,0,0,1-1.4-1.4,4.94,4.94,0,0,1-.5-2.4V155h-3.3v-3.6h3.3v-5.9H211v5.9Z"/><path class="b" d="M217.7,148.3v-4.4h5.4v4.4Zm5.4,3V171h-5.4V151.4Z"/><path class="b" d="M227.1,157.4a6.33,6.33,0,0,1,1-3.2,6.69,6.69,0,0,1,2.1-2,10.21,10.21,0,0,1,2.9-1.1,18.16,18.16,0,0,1,3.2-.3c1,0,2,.1,3,.2a9,9,0,0,1,2.8.8,5.51,5.51,0,0,1,2,1.7,4.89,4.89,0,0,1,.8,2.9v10.2a22.6,22.6,0,0,0,.1,2.6,3.74,3.74,0,0,0,.5,1.8H240a2.92,2.92,0,0,1-.2-.9,3.08,3.08,0,0,1-.1-1,7.32,7.32,0,0,1-3,1.9,11.19,11.19,0,0,1-3.6.5,10.9,10.9,0,0,1-2.6-.3,5.29,5.29,0,0,1-2.1-1.1,4.89,4.89,0,0,1-1.4-1.8,5.75,5.75,0,0,1-.5-2.6,6.71,6.71,0,0,1,.6-2.8,5,5,0,0,1,1.5-1.7,5.8,5.8,0,0,1,2.1-1,20.48,20.48,0,0,1,2.4-.5l2.4-.3,2.1-.3a2.67,2.67,0,0,0,1.4-.7,1.54,1.54,0,0,0,.5-1.3,3.19,3.19,0,0,0-.3-1.4,2,2,0,0,0-.8-.8,3.58,3.58,0,0,0-1.1-.4,6.15,6.15,0,0,0-1.4-.1,3.67,3.67,0,0,0-2.5.7,3,3,0,0,0-1.1,2.3Zm12.5,4a1.93,1.93,0,0,1-.9.5l-1.1.3c-.4.1-.8.1-1.2.2s-.9.1-1.3.2l-1.2.3a3.13,3.13,0,0,0-1,.5,2.7,2.7,0,0,0-.7.8,2.55,2.55,0,0,0,0,2.4,2.7,2.7,0,0,0,.7.8,3.58,3.58,0,0,0,1.1.4,4.87,4.87,0,0,0,1.2.1,4.34,4.34,0,0,0,2.5-.5,3.25,3.25,0,0,0,1.3-1.3,4.42,4.42,0,0,0,.5-1.5,4.87,4.87,0,0,0,.1-1.2Z"/><path class="b" d="M254.7,143.9V171h-5.4V143.9Z"/><path class="b" d="M263.5,166.1a2.84,2.84,0,0,0,.9,1,3.1,3.1,0,0,0,1.3.6,7.72,7.72,0,0,0,1.5.2,4.87,4.87,0,0,0,1.2-.1,3.58,3.58,0,0,0,1.1-.4,3.24,3.24,0,0,0,.9-.8,1.8,1.8,0,0,0,.3-1.2c0-.8-.5-1.4-1.6-1.8a37.45,37.45,0,0,0-4.5-1.2l-2.3-.6a7.22,7.22,0,0,1-2-.9,4,4,0,0,1-1.4-1.5,3.42,3.42,0,0,1-.5-2.2,6.43,6.43,0,0,1,.7-3.1,5.2,5.2,0,0,1,2-1.9,8.8,8.8,0,0,1,2.7-1,16.17,16.17,0,0,1,6.2,0,8.8,8.8,0,0,1,2.7,1,6.06,6.06,0,0,1,2,1.9,5.29,5.29,0,0,1,.9,3h-5.1a2.25,2.25,0,0,0-1.2-2.1,5.42,5.42,0,0,0-2.5-.6,3.4,3.4,0,0,0-1,.1,3.55,3.55,0,0,0-1,.2,1.34,1.34,0,0,0-.7.6,1.69,1.69,0,0,0-.3,1,1.66,1.66,0,0,0,.5,1.2,3.69,3.69,0,0,0,1.4.7,14.62,14.62,0,0,0,2,.5,17.42,17.42,0,0,1,2.2.5c.7.2,1.5.4,2.3.6a7.5,7.5,0,0,1,2,1,3.64,3.64,0,0,1,1.4,1.6,3.72,3.72,0,0,1,.5,2.3,5.87,5.87,0,0,1-.8,3.2,5.78,5.78,0,0,1-2,2.1,7.91,7.91,0,0,1-2.9,1.1,18.3,18.3,0,0,1-6.6,0,9.77,9.77,0,0,1-3-1.1,6.21,6.21,0,0,1-3-5.4h5.1C263.1,165.1,263.3,165.7,263.5,166.1Z"/><path class="b" d="M296.9,155v-3.6h3.2v-1.5a5.79,5.79,0,0,1,1.6-4.3,6.85,6.85,0,0,1,4.9-1.7h1.5c.5,0,1,.1,1.4.1v4a13.4,13.4,0,0,0-2-.1,1.94,1.94,0,0,0-1.6.5,2.62,2.62,0,0,0-.5,1.7v1.2h3.7V155h-3.7v16H300V155Z"/><path class="b" d="M311.7,156.9a9.44,9.44,0,0,1,2-3.3,9.88,9.88,0,0,1,3.2-2.1,12.14,12.14,0,0,1,8.4,0,8.86,8.86,0,0,1,5.3,5.4,10.52,10.52,0,0,1,.7,4.3,12,12,0,0,1-.7,4.2,8.25,8.25,0,0,1-2,3.2,9.88,9.88,0,0,1-3.2,2.1,12.13,12.13,0,0,1-8.4,0,9.88,9.88,0,0,1-3.2-2.1,8.25,8.25,0,0,1-2-3.2,12.34,12.34,0,0,1-.7-4.2A10.45,10.45,0,0,1,311.7,156.9Zm4.9,6.6a5,5,0,0,0,.8,2,4,4,0,0,0,1.5,1.4,3.72,3.72,0,0,0,2.3.5,5.93,5.93,0,0,0,2.3-.5,4,4,0,0,0,1.5-1.4,7,7,0,0,0,.8-2,9,9,0,0,0,.2-2.3,16.41,16.41,0,0,0-.2-2.3,5,5,0,0,0-.8-2,4,4,0,0,0-1.5-1.4,4.71,4.71,0,0,0-4.6,0,5,5,0,0,0-1.5,1.4,7,7,0,0,0-.8,2,9,9,0,0,0-.2,2.3A17.85,17.85,0,0,0,316.6,163.5Z"/><path class="b" d="M340,151.4V155h0a5.85,5.85,0,0,1,1-1.7,4.71,4.71,0,0,1,1.5-1.3,5.08,5.08,0,0,1,1.8-.9,6.45,6.45,0,0,1,2-.3,5,5,0,0,1,1.2.2v5a2.77,2.77,0,0,0-.9-.1c-.3,0-.7-.1-1-.1a5.34,5.34,0,0,0-2.5.5,3.64,3.64,0,0,0-1.6,1.4,7.22,7.22,0,0,0-.9,2,10.07,10.07,0,0,0-.3,2.5v8.9h-5.4V151.5H340Z"/><path class="b" d="M376.4,165.4a7.89,7.89,0,0,1-1.2,3,6.67,6.67,0,0,1-2.7,2.3,10,10,0,0,1-4.8.9,12.57,12.57,0,0,1-3.3-.5,8.93,8.93,0,0,1-2.9-1.5,8.6,8.6,0,0,1-2-2.6,10,10,0,0,1-.8-3.8v-2.4H364V162a11,11,0,0,0,.2,1.8,5.78,5.78,0,0,0,.5,1.4,2.19,2.19,0,0,0,1,.9,3.23,3.23,0,0,0,1.7.3,3.66,3.66,0,0,0,1.8-.4,2.44,2.44,0,0,0,.9-1.1,3.53,3.53,0,0,0,.3-1.4c0-.5.1-1,.1-1.5V143.7h6v18.6A15.82,15.82,0,0,1,376.4,165.4Z"/><path class="b" d="M387.1,166.3a5.58,5.58,0,0,0,6.3.4,3.53,3.53,0,0,0,1.5-1.7h4.8a9.46,9.46,0,0,1-3.5,5.1,9.59,9.59,0,0,1-5.7,1.5,12.34,12.34,0,0,1-4.2-.7,9.88,9.88,0,0,1-3.2-2.1,7.93,7.93,0,0,1-2-3.3,12,12,0,0,1-.7-4.2,11.41,11.41,0,0,1,.7-4.1,9.69,9.69,0,0,1,5.2-5.5,11.5,11.5,0,0,1,4.1-.8,9.76,9.76,0,0,1,4.4,1,8.64,8.64,0,0,1,3.1,2.6,10.38,10.38,0,0,1,1.7,3.7,12.93,12.93,0,0,1,.4,4.4H385.8A5.26,5.26,0,0,0,387.1,166.3Zm6.1-10.4a4.07,4.07,0,0,0-2.9-1.1,4.92,4.92,0,0,0-2.1.4,4.86,4.86,0,0,0-1.4,1.1,3.69,3.69,0,0,0-.7,1.4,5.85,5.85,0,0,0-.2,1.3h8.8a9.87,9.87,0,0,0-1.5-3.1Z"/><path class="b" d="M408.9,166.3a5.58,5.58,0,0,0,6.3.4,3.53,3.53,0,0,0,1.5-1.7h4.8a9.46,9.46,0,0,1-3.5,5.1,9.59,9.59,0,0,1-5.7,1.5,12.34,12.34,0,0,1-4.2-.7,8.51,8.51,0,0,1-3.1-2.1,7.93,7.93,0,0,1-2-3.3,12,12,0,0,1-.7-4.2,11.41,11.41,0,0,1,.7-4.1,9.69,9.69,0,0,1,5.2-5.5,11.5,11.5,0,0,1,4.1-.8,9.76,9.76,0,0,1,4.4,1,8.64,8.64,0,0,1,3.1,2.6,10.38,10.38,0,0,1,1.7,3.7,12.93,12.93,0,0,1,.4,4.4H407.7A4.76,4.76,0,0,0,408.9,166.3ZM415,156a4.07,4.07,0,0,0-2.9-1.1,4.92,4.92,0,0,0-2.1.4,4.86,4.86,0,0,0-1.4,1.1,3.69,3.69,0,0,0-.7,1.4,5.85,5.85,0,0,0-.2,1.3h8.8A8.92,8.92,0,0,0,415,156Z"/><path class="b" d="M430,151.4v2.5h.1a6.14,6.14,0,0,1,2.5-2.3,7.67,7.67,0,0,1,3.4-.7,9,9,0,0,1,4,.9,8.39,8.39,0,0,1,4.4,5.7,13.31,13.31,0,0,1,.5,4,15.83,15.83,0,0,1-.5,3.8,8.76,8.76,0,0,1-1.6,3.2,7.81,7.81,0,0,1-6.5,3,8,8,0,0,1-3.4-.7,5.9,5.9,0,0,1-2.5-2.2h-.1v9.3h-5.4V151.4Zm7,15.5a3.16,3.16,0,0,0,1.4-1.4,5,5,0,0,0,.8-2,9,9,0,0,0,.2-2.3,16.41,16.41,0,0,0-.2-2.3,5,5,0,0,0-.8-2,4,4,0,0,0-1.5-1.4,4.87,4.87,0,0,0-4.4,0,5,5,0,0,0-1.5,1.4,7,7,0,0,0-.8,2,19.42,19.42,0,0,0-.2,2.4,16.41,16.41,0,0,0,.2,2.3,5,5,0,0,0,.8,2,4.61,4.61,0,0,0,6,1.3Z"/><path class="b" d="M475.7,171,467,143.9h6.1l6,19.1h.1l6.1-19.1h6.2l-9,27.1Z"/><path class="b" d="M496.9,166.3a5.58,5.58,0,0,0,6.3.4,2.91,2.91,0,0,0,1.4-1.7h4.8a8.79,8.79,0,0,1-3.5,5.1,9.59,9.59,0,0,1-5.7,1.5,12.34,12.34,0,0,1-4.2-.7,9.88,9.88,0,0,1-3.2-2.1,7.93,7.93,0,0,1-2-3.3,12,12,0,0,1-.7-4.2,11.41,11.41,0,0,1,.7-4.1,9.69,9.69,0,0,1,5.2-5.5,11.5,11.5,0,0,1,4.1-.8,9.76,9.76,0,0,1,4.4,1,8.64,8.64,0,0,1,3.1,2.6,10.38,10.38,0,0,1,1.7,3.7,12.93,12.93,0,0,1,.4,4.4H495.5A5.68,5.68,0,0,0,496.9,166.3ZM503,156a4.07,4.07,0,0,0-2.9-1.1,4.92,4.92,0,0,0-2.1.4,4.86,4.86,0,0,0-1.4,1.1,3.69,3.69,0,0,0-.7,1.4,5.85,5.85,0,0,0-.2,1.3h8.8A8.92,8.92,0,0,0,503,156Z"/><path class="b" d="M518.3,143.9v10.2h.1a6.27,6.27,0,0,1,2.6-2.5,6.81,6.81,0,0,1,3.1-.8,11.33,11.33,0,0,1,3.6.6,5,5,0,0,1,2.2,1.6,6,6,0,0,1,1.1,2.6,18.41,18.41,0,0,1,.3,3.3V171H526V159.9a6.37,6.37,0,0,0-.8-3.6,3.14,3.14,0,0,0-2.7-1.2,3.89,3.89,0,0,0-3.2,1.3,7.22,7.22,0,0,0-1,4.3V171H513V143.9Z"/><path class="b" d="M535.6,148.3v-4.4H541v4.4Zm5.4,3V171h-5.4V151.4Z"/><path class="b" d="M554.7,154.9a4.28,4.28,0,0,0-2.2.6,4,4,0,0,0-1.4,1.5,6.56,6.56,0,0,0-.8,2.1,12.2,12.2,0,0,0,0,4.4,6.79,6.79,0,0,0,.7,2,4,4,0,0,0,1.4,1.5,3.94,3.94,0,0,0,2.1.6,3.77,3.77,0,0,0,3-1.1,5.15,5.15,0,0,0,1.3-2.9h5.1a9.15,9.15,0,0,1-3,6,11.14,11.14,0,0,1-10.4,1.4,8.51,8.51,0,0,1-3.1-2.1,8.25,8.25,0,0,1-2-3.2,10.88,10.88,0,0,1-.7-4,12,12,0,0,1,.7-4.2,9,9,0,0,1,2-3.4,8.75,8.75,0,0,1,3.2-2.2,10.6,10.6,0,0,1,4.3-.8,10,10,0,0,1,3.4.5,11.08,11.08,0,0,1,2.9,1.4,7.35,7.35,0,0,1,3,5.6h-5.3a3.58,3.58,0,0,0-3.7-3.5C554.9,154.9,554.8,154.9,554.7,154.9Z"/><path class="b" d="M572.6,143.9V171h-5.4V143.9Z"/><path class="b" d="M582.7,166.3a5.58,5.58,0,0,0,6.3.4,3.53,3.53,0,0,0,1.5-1.7h4.8a9.46,9.46,0,0,1-3.5,5.1,9.59,9.59,0,0,1-5.7,1.5,12.34,12.34,0,0,1-4.2-.7,9.88,9.88,0,0,1-3.2-2.1,7.93,7.93,0,0,1-2-3.3,12,12,0,0,1-.7-4.2,11.41,11.41,0,0,1,.7-4.1,9.69,9.69,0,0,1,5.2-5.5,11.5,11.5,0,0,1,4.1-.8,9.76,9.76,0,0,1,4.4,1,8.64,8.64,0,0,1,3.1,2.6,10.38,10.38,0,0,1,1.7,3.7,12.93,12.93,0,0,1,.4,4.4H581.4A4.72,4.72,0,0,0,582.7,166.3Zm6.1-10.3a4.07,4.07,0,0,0-2.9-1.1,5.7,5.7,0,0,0-2.2.4,4.86,4.86,0,0,0-1.4,1.1,3.69,3.69,0,0,0-.7,1.4,5.85,5.85,0,0,0-.2,1.3h8.8A7.27,7.27,0,0,0,588.8,156Z"/><path class="b" d="M603.2,166.1a2.84,2.84,0,0,0,.9,1,3.1,3.1,0,0,0,1.3.6,7.72,7.72,0,0,0,1.5.2,4.87,4.87,0,0,0,1.2-.1,3.58,3.58,0,0,0,1.1-.4,3.24,3.24,0,0,0,.9-.8,1.8,1.8,0,0,0,.3-1.2c0-.8-.5-1.4-1.6-1.8a37.45,37.45,0,0,0-4.5-1.2l-2.3-.6a7.22,7.22,0,0,1-2-.9,4,4,0,0,1-1.4-1.5,3.42,3.42,0,0,1-.5-2.2,6.43,6.43,0,0,1,.7-3.1,5.2,5.2,0,0,1,2-1.9,8.8,8.8,0,0,1,2.7-1,16.17,16.17,0,0,1,6.2,0,8.8,8.8,0,0,1,2.7,1,6.06,6.06,0,0,1,2,1.9,5.29,5.29,0,0,1,.9,3h-5.1a2.4,2.4,0,0,0-1.2-2,5.42,5.42,0,0,0-2.5-.6,3.4,3.4,0,0,0-1,.1,3.55,3.55,0,0,0-1,.2,1.34,1.34,0,0,0-.7.6,1.69,1.69,0,0,0-.3,1,1.66,1.66,0,0,0,.5,1.2,3.69,3.69,0,0,0,1.4.7,14.62,14.62,0,0,0,2,.5,17.42,17.42,0,0,1,2.2.5c.7.2,1.5.4,2.3.6a7.5,7.5,0,0,1,2,1,3.64,3.64,0,0,1,1.4,1.6,3.72,3.72,0,0,1,.5,2.3,5.87,5.87,0,0,1-.8,3.2,5.78,5.78,0,0,1-2,2.1,7.91,7.91,0,0,1-2.9,1.1,18.3,18.3,0,0,1-6.6,0,10.21,10.21,0,0,1-2.9-1.1,6.21,6.21,0,0,1-3-5.4h5.1C602.9,165.2,603,165.7,603.2,166.1Z"/><path class="b" d="M280.5,146h0a4.27,4.27,0,0,0-4.3,4.3h0a4.25,4.25,0,0,0,4.3,4.2,4.25,4.25,0,0,0,0-8.5Zm0,8a3.56,3.56,0,0,1-3.5-3.6h0a3.48,3.48,0,0,1,3.4-3.6h.1a3.56,3.56,0,0,1,3.5,3.6h0A3.78,3.78,0,0,1,280.5,154Z"/><path class="b" d="M281.2,150.4h0a1.2,1.2,0,0,0,.9-1.2,1,1,0,0,0-.5-1,2.6,2.6,0,0,0-1.5-.4c-.6,0-1,.1-1.4.1v4.8h.8v-2h.5a1,1,0,0,1,1.1.8h0a2.66,2.66,0,0,0,.3,1.2h.8l-.3-1.2A1,1,0,0,0,281.2,150.4Zm-1-.3h-.5v-1.6c.2,0,.3-.1.5-.1.8,0,1.1.5,1.1.8C281.4,149.9,280.8,150.1,280.2,150.1Z"/><path class="b" d="M449.2,146h0a4.27,4.27,0,0,0-4.3,4.3h0a4.25,4.25,0,1,0,4.3-4.3Zm0,8a3.56,3.56,0,0,1-3.5-3.6h0a3.48,3.48,0,0,1,3.4-3.6h.1a3.56,3.56,0,0,1,3.5,3.6h0A3.78,3.78,0,0,1,449.2,154Z"/><path class="b" d="M449.9,150.4h0a1.2,1.2,0,0,0,.9-1.2,1,1,0,0,0-.5-1,2.6,2.6,0,0,0-1.5-.4c-.6,0-1,.1-1.4.1v4.8h.8v-2h.5a1,1,0,0,1,1.1.8h0a2.66,2.66,0,0,0,.3,1.2h.8l-.3-1.2A1,1,0,0,0,449.9,150.4Zm-1-.3h-.5v-1.6c.2,0,.3-.1.5-.1.8,0,1.1.5,1.1.8C450.1,149.9,449.5,150.1,448.9,150.1Z"/></svg>